HIERARCHY
ROOT Hips
{
  OFFSET 155.048 98.1286 3.93448
  CHANNELS 6 Xposition Yposition Zposition Zrotation Xrotation Yrotation
  JOINT RightUpLeg
  {
    OFFSET -8.9458 -8.66707 0.101652
    CHANNELS 3 Zrotation Xrotation Yrotation
    JOINT RightLeg
    {
      OFFSET 0 -44.4227 1.3727
      CHANNELS 3 Zrotation Xrotation Yrotation
      JOINT RightFoot
      {
        OFFSET 0.253549 -42.0924 -1.46059
        CHANNELS 3 Zrotation Xrotation Yrotation
        JOINT RightToes
        {
          OFFSET 0.04 -4.41509 8.4991
          CHANNELS 3 Zrotation Xrotation Yrotation
          End Site
          {
            OFFSET -0.08 -0.137448 9.77979
          }
        }
      }
    }
  }
  JOINT Spine
  {
    OFFSET 0 11.8905 0
    CHANNELS 3 Zrotation Xrotation Yrotation
    JOINT Spine1
    {
      OFFSET 0 25.6574 0.127663
      CHANNELS 3 Zrotation Xrotation Yrotation
      JOINT Head
      {
        OFFSET 0 8.73416 0.011341
        CHANNELS 3 Zrotation Xrotation Yrotation
        End Site
        {
          OFFSET -0.29 12.7742 2.51395
        }
      }
      JOINT LeftShoulder1
      {
        OFFSET 8.99 -0.362252 -0.22
        CHANNELS 3 Zrotation Xrotation Yrotation
        JOINT LeftArm
        {
          OFFSET 10.2827 -0.00337999 0.322123
          CHANNELS 3 Zrotation Xrotation Yrotation
          JOINT LeftForeArm
          {
            OFFSET 26.2597 0.099144 -1.42434
            CHANNELS 3 Zrotation Xrotation Yrotation
            JOINT LeftHand
            {
              OFFSET 22.0902 0.085362 1.02216
              CHANNELS 3 Zrotation Xrotation Yrotation
              End Site
              {
                OFFSET 13.419 -0.6 1.50291
              }
            }
          }
        }
      }
      JOINT RightShoulder
      {
        OFFSET -8.99 -0.362252 -0.22
        CHANNELS 3 Zrotation Xrotation Yrotation
        JOINT RightArm
        {
          OFFSET -10.2827 -0.00338 0.322123
          CHANNELS 3 Zrotation Xrotation Yrotation
          JOINT RightForeArm
          {
            OFFSET -26.364 0.099144 -1.42434
            CHANNELS 3 Zrotation Xrotation Yrotation
            JOINT RightHand
            {
              OFFSET -22.0324 0.085362 1.02216
              CHANNELS 3 Zrotation Xrotation Yrotation
              End Site
              {
                OFFSET -13.3284 -0.6 1.50291
              }
            }
          }
        }
      }
    }
  }
  JOINT LeftUpLeg
  {
    OFFSET 8.9458 -8.66707 0.101652
    CHANNELS 3 Zrotation Xrotation Yrotation
    JOINT LeftLeg
    {
      OFFSET 0 -44.4227 1.3727
      CHANNELS 3 Zrotation Xrotation Yrotation
      JOINT LeftFoot
      {
        OFFSET -0.253549 -42.0924 -1.46059
        CHANNELS 3 Zrotation Xrotation Yrotation
        JOINT LeftToes
        {
          OFFSET -0.04 -4.41509 8.4991
          CHANNELS 3 Zrotation Xrotation Yrotation
          End Site
          {
            OFFSET 0.08 -0.047448 9.77979
          }
        }
      }
    }
  }
}
MOTION
Frames:	12
Frame Time:	0.0333333
-145.286 103.593 -0.433663 -2.09204 -4.28002 81.9901 -0.418533 -42.7453 -7.87114 -1.60158 64.6277 -9.4924 15.0715 -4.243 -0.60326 0.0462048 0.000530889 0.662642 1.78416 7.47507 -2.95426 -0.77332 10.1594 -2.70691 -1.99015 -2.80949 7.16438 -36.7066 8.04716 -15.1518 -43.7431 -24.3688 -16.813 -8.10394 21.671 -71.4468 16.0415 8.95204 -1.73548 48.7052 12.2419 17.8626 20.0936 -44.6868 -11.3729 6.43317 28.5241 8.76187 -3.41453 9.69545 3.6914 -2.37831 3.12453 7.18638 0.0176751 20.1253 16.7361 -12.1195 -13.9935 -0.608423 -1.33194e-009 8.75224e-006 -1.47011e-008 
-141.238 100.979 0.124824 -1.65033 -3.6409 84.3292 -1.57513 -43.2868 -8.6746 -1.16712 56.3141 -8.91284 14.5345 -4.29482 -0.581511 0.0462048 0.000530889 0.662642 0.369493 8.40234 -3.12552 -0.0115658 8.89484 -3.02798 -1.56712 -3.2527 6.1166 -36.2307 7.86583 -14.9447 -44.769 -22.3148 -20.7275 -5.5617 22.4948 -74.7598 16.0524 8.91268 -2.03375 48.2664 12.1828 17.947 20.4401 -43.3441 -10.45 6.30346 27.7151 10.1043 -3.75692 9.66946 3.67137 -3.85528 5.17211 6.90323 -0.261001 19.6486 19.4411 -7.89893 -18.256 -0.634448 -1.33194e-009 8.75224e-006 -1.47011e-008 
-137.02 98.096 0.71202 0.397764 -3.34079 86.4441 -1.57717 -41.4725 -7.78383 -0.903066 48.0422 -7.77631 13.6891 -5.54119 -0.41206 0.0462048 0.000530889 0.662642 -0.823365 10.852 -2.95232 0.677038 8.36288 -3.0662 -1.12519 -5.29668 4.77778 -35.0756 7.61031 -14.8592 -46.9361 -20.0847 -25.8301 -3.12913 22.9806 -75.445 17.2398 8.76035 -2.5515 47.4166 11.893 17.798 21.6844 -42.4466 -8.16212 6.10581 26.8306 11.2267 -4.91909 9.57654 3.71428 -4.44063 9.55813 7.92172 0.0762249 21.6751 20.169 -4.27135 -24.7514 -0.53445 -1.33194e-009 8.75224e-006 -1.47011e-008 
-132.142 95.5578 1.39951 2.17992 -3.08129 87.7339 -0.526767 -38.8558 -6.03188 -0.717521 40.6686 -6.46564 13.6981 -7.7079 -0.168948 0.0462048 0.000530889 0.662642 -1.85176 11.863 -2.40496 1.57246 9.26627 -2.87516 -0.875527 -7.64828 3.32199 -34.1389 7.45987 -14.9206 -48.5047 -18.0563 -29.5729 0.524527 23.7772 -73.354 19.9344 8.37936 -3.69874 46.6159 11.5677 17.556 22.6165 -42.1784 -5.68904 5.90093 26.8086 11.7625 -6.28795 9.45107 4.10696 -4.13787 15.0039 9.27067 0.517989 22.8407 17.1394 -4.91855 -30.2456 -0.863289 -1.33194e-009 8.75224e-006 -1.47011e-008 
-126.527 94.015 2.11511 1.57092 -2.81546 88.67 1.03148 -37.8262 -4.37016 -0.653389 36.4495 -6.30502 11.8786 -7.89322 -0.139579 0.0462048 0.000530889 0.662642 -2.343 9.753 -2.23561 3.11648 10.535 -3.14884 -0.987863 -8.04507 2.48496 -34.0809 7.49387 -15.0297 -48.6235 -16.9636 -29.1443 4.64847 25.3315 -68.4192 23.1815 7.94917 -4.58256 46.2381 11.4419 17.4885 22.0843 -41.7402 -5.17437 5.76348 27.286 12.0231 -7.22295 9.35822 4.41494 -3.27679 18.2972 9.66761 0.727231 22.8373 12.4342 -10.1064 -31.3752 -2.01005 -1.33194e-009 8.75224e-006 -1.47011e-008 
-120.461 93.527 2.74151 -0.697552 -2.94441 89.5376 3.64847 -38.5673 -0.78362 -0.861086 37.47 -9.16121 6.35592 -5.77659 -0.257607 0.0462048 0.000530889 0.662642 -1.1443 6.12789 -2.8327 3.94908 11.2572 -3.82846 -1.25796 -6.75337 2.78217 -34.214 7.52938 -15.0551 -48.1171 -16.6632 -24.7869 6.28209 27.0106 -60.5182 24.7806 7.95216 -3.86926 46.0755 11.42 17.5183 21.1421 -40.6182 -6.42836 5.68905 27.1257 12.5234 -7.30219 9.36726 4.11417 -1.74731 17.8776 8.76188 0.898503 26.0762 10.8687 -16.898 -26.2872 -2.68737 -1.33194e-009 8.75224e-006 -1.47011e-008 
-114.156 93.4573 3.21497 -2.12964 -3.79337 90.0303 7.51048 -38.564 5.01323 -1.07611 42.1674 -13.537 1.17337 -4.95081 -0.192526 0.0462048 0.000530889 0.662642 2.4208 3.80187 -3.77978 2.2891 11.363 -4.15234 -1.4018 -5.88949 4.05654 -33.6918 7.39259 -14.9605 -47.9721 -16.7532 -19.2156 3.65894 26.822 -50.0186 23.1299 8.51269 -1.65952 45.7724 11.3105 17.447 21.4281 -39.2636 -7.20361 5.68777 26.0509 13.2124 -6.38264 9.47356 3.45233 0.887423 14.1228 7.49984 0.866655 36.8992 11.8181 -20.032 -15.3382 -1.34473 -1.33194e-009 8.75224e-006 -1.47011e-008 
-107.989 93.5596 3.50124 -2.12304 -5.21108 90.1075 10.6205 -36.1308 8.31365 -1.22101 46.0478 -15.736 0.267491 -7.87016 -0.163855 0.0462048 0.000530889 0.662642 7.32841 3.303 -4.67833 -0.635995 11.4065 -4.09937 -1.43295 -5.97505 5.53285 -33.0781 7.20982 -14.7912 -48.029 -16.8174 -14.8039 -1.72156 22.6617 -37.7743 19.7471 9.11465 0.670281 45.347 11.1513 17.3345 22.6262 -38.0035 -6.49221 5.71951 24.4998 13.9809 -4.98691 9.59458 3.06237 4.49352 7.82414 6.60316 1.02462 52.5438 10.632 -17.4322 -2.60118 0.741253 -1.33194e-009 8.75224e-006 -1.47011e-008 
-102.16 94.3659 3.70225 -2.09561 -6.39326 90.5602 11.0099 -32.0826 6.26149 -1.23125 46.0919 -14.8965 1.11767 -11.9328 -0.16182 0.0462048 0.000530889 0.662642 10.8837 2.68431 -5.1697 -1.87465 12.0256 -4.10213 -1.64339 -5.62087 6.08358 -33.3851 7.18887 -14.5982 -48.3151 -18.8342 -12.4732 -6.55566 15.8744 -24.9245 18.2624 9.35476 1.85621 45.0445 11.0518 17.2787 23.4046 -36.2921 -5.57301 5.59834 22.0943 15.4398 -4.54123 9.62486 3.12093 7.35356 -0.5339 5.68961 1.75471 67.1799 8.7835 -12.5242 4.18182 1.2832 -1.33194e-009 8.75224e-006 -1.47011e-008 
-96.2945 96.2269 4.0373 -2.44761 -5.85822 91.3516 8.60277 -26.7698 1.05671 -1.05706 42.7869 -12.2901 0.536353 -13.7978 -0.180221 0.0462048 0.000530889 0.662642 10.71 1.23197 -4.6822 -1.20936 12.9078 -3.81474 -1.88181 -4.27686 5.07343 -34.2221 7.27363 -14.4298 -50.609 -32.9399 -12.3306 -9.67572 17.8537 -11.8624 20.3154 9.34027 2.1612 45.0468 11.0135 17.2053 23.5411 -34.5195 -5.69671 5.35014 18.721 17.8695 -6.3592 9.47726 3.40507 7.74207 -9.47466 5.47854 3.21093 77.9101 8.54822 -9.06445 3.06265 0.818065 -1.33194e-009 8.75224e-006 -1.47011e-008 
-90.5836 98.7794 4.50652 -2.29597 -3.89206 91.1287 5.60096 -20.4813 -2.30572 -0.858613 38.2561 -9.78917 0.625208 -12.5435 -0.180336 0.0462048 0.000530889 0.662642 8.43623 0.791788 -3.32945 -0.903394 13.4073 -2.50932 -1.65673 -2.89268 3.10619 -34.4009 7.24849 -14.2895 -53.6448 -51.7253 -13.0553 -11.212 24.3812 -2.28125 24.188 9.2758 2.39239 45.376 11.0226 17.0805 23.9142 -34.5827 -6.23501 5.28286 16.1777 20.0846 -9.88189 9.17954 3.78683 6.5515 -16.8995 6.42591 6.01542 83.3779 6.80798 -9.0868 -0.689895 0.538299 -1.33194e-009 8.75224e-006 -1.47011e-008 
-85.1798 101.486 4.90139 -1.20288 -0.987482 90.5156 3.21666 -14.4599 -2.08793 -0.76288 34.7118 -8.5615 3.95595 -8.47942 -0.166401 0.0462048 0.000530889 0.662642 6.85384 2.26051 -1.73948 -2.7012 13.0482 -0.294845 -1.15548 -1.86961 1.4188 -33.7975 7.09039 -14.1696 -49.4188 -53.1848 -7.66223 -10.0038 17.2855 -0.974489 26.7643 9.25489 2.60887 45.7902 11.0656 16.9839 25.208 -36.0485 -5.8066 5.45895 15.2066 20.9053 -12.5372 8.93547 4.12102 5.23234 -22.2233 8.23169 6.68832 83.9641 6.00973 -10.0567 -2.20073 0.480231 -1.33194e-009 8.75224e-006 -1.47011e-008 
